<svg width="461" height="53" fill="none" xmlns="http://www.w3.org/2000/svg"><g clip-path="url('#clip0_141_611')" fill="#F3BD20"><path d="M254.13 18.392c-8.484-6.644-17.683-8.032-27.421-6.55-6.105.929-10.98 4.045-13.745 9.807-2.133 4.457-1.195 8.69 1.512 12.583 3.562 5.127 8.718 7.526 14.741 8.043 5.168.436 10.242-.246 15.198-1.893 1.676-.552 2.52-1.329 2.262-3.198-.164-1.188-.035-2.411-.035-3.846h-15.48V22.696h26.319v2.422c0 5.739-.164 11.478.07 17.204.106 2.54-.867 3.905-2.894 5.116-4.887 2.916-10.183 4.457-15.784 5.08-6.937.788-13.828.706-20.542-1.6-11.39-3.915-18.339-13.405-17.976-24.976.27-8.714 4.781-15.123 11.636-20.027 7.84-5.61 16.734-6.562 25.991-5.562 4.992.54 9.855 1.587 14.425 3.81 1.254.611 1.769 1.364 1.734 2.81-.105 3.634-.035 7.268-.035 11.419h.024ZM177.833 33.291c3.551 6.033 7.066 11.995 10.793 18.322-4.383 0-8.426.058-12.457-.071-.539-.012-1.195-.882-1.57-1.505-2.672-4.492-5.238-9.043-7.945-13.524-.398-.658-1.312-1.422-2.003-1.434-6.281-.106-12.562-.07-19.089-.07V51.47H134.84V.953c.597-.06 1.148-.153 1.711-.153 10.862 0 21.725-.059 32.588 0 8.179.047 15.327 5.35 17.26 12.63 1.992 7.514-.855 14.805-7.406 19.026-.351.224-.667.482-1.136.823l-.024.012Zm-32.306-9.16c7.945 0 15.643.047 23.342-.047 1.23-.012 2.519-.553 3.656-1.106 2.121-1.035 3.094-2.846 3.059-5.233-.047-2.399-1.137-4.174-3.293-5.08-1.36-.576-2.871-1.035-4.324-1.058-7.359-.118-14.706-.082-22.065-.082-.106 0-.211.176-.364.293v12.324l-.011-.011ZM0 .282c3.879 0 7.582-.035 11.284 0 7.137.07 14.308-.235 21.41.377 9.878.846 17.283 5.95 21.01 15.322 3.609 9.067 2.52 17.78-3.832 25.412-4.816 5.786-11.202 9.044-18.643 9.29-10.336.342-20.694.083-31.229.083V.282Zm10.933 10.701v29.67c6.093 0 12.011.035 17.929-.024 1.195 0 2.425-.247 3.585-.553 7.078-1.799 11.859-7.949 11.613-14.852-.258-7.185-5.226-13.476-12.304-14.111-6.843-.623-13.792-.13-20.823-.13ZM405.375.53c10.863 0 21.526-.424 32.143.105 13.511.67 23.225 11.266 23.483 24.66.234 12.7-9.597 23.707-22.628 25.247-2.332.27-4.699.33-7.054.341-8.578.036-17.144.012-25.944.012V.53Zm10.91 10.442v29.657c6.234 0 12.292.035 18.35-.035 1.266-.012 2.555-.33 3.773-.682 6.762-1.964 11.273-7.938 11.109-14.594-.176-6.867-4.699-12.383-11.624-14.135-.282-.07-.551-.188-.832-.188h-20.776v-.023ZM331.445 51.507c-4.148 0-8.003.058-11.847-.06-.586-.023-1.324-.728-1.675-1.316-1.395-2.246-2.578-4.633-4.043-6.833-.492-.729-1.606-1.47-2.438-1.481-9.28-.106-18.573-.094-27.865 0-.785 0-1.828.694-2.273 1.376-1.489 2.27-2.707 4.715-4.137 7.032-.363.588-1.09 1.305-1.664 1.329-3.914.117-7.827.058-12.034.058.34-.705.515-1.129.738-1.528 9.011-15.876 18.034-31.74 27.01-47.638.691-1.223 1.406-1.764 2.836-1.693 2.355.129 4.711.082 7.066.011 1.195-.035 1.957.283 2.578 1.4 9.081 16.087 18.198 32.139 27.315 48.214.129.235.199.505.445 1.129h-.012Zm-24.549-20.568c-3.211-5.633-6.222-10.936-9.421-16.557-3.199 5.68-6.188 10.995-9.316 16.557H306.896ZM127.246 51.507c-4.219 0-8.003.058-11.777-.06-.609-.011-1.406-.61-1.757-1.175-1.453-2.293-2.672-4.751-4.184-6.997-.492-.73-1.605-1.458-2.437-1.47-9.21-.106-18.433-.106-27.643 0-.844 0-1.992.694-2.472 1.411-1.5 2.258-2.73 4.704-4.137 7.032-.328.553-.973 1.27-1.488 1.282-3.973.106-7.945.059-12.304.059 1.535-2.74 2.87-5.15 4.23-7.55 7.84-13.817 15.714-27.623 23.507-41.475.773-1.376 1.64-1.917 3.198-1.823 2.836.176 6.2-.74 8.379.494 2.097 1.188 3 4.527 4.371 6.95 7.851 13.817 15.69 27.646 23.53 41.464.269.482.515.976.972 1.834l.012.024ZM83.901 30.869h18.632c-3.164-5.574-6.164-10.854-9.351-16.487-3.2 5.68-6.152 10.936-9.27 16.487h-.011ZM376.981.27h11.038c.059.377.129.647.129.918-.106 10.466-.199 20.932-.363 31.398-.024 1.564-.293 3.14-.598 4.68-1.816 9.255-6.539 13.735-15.937 15.099a60.668 60.668 0 0 1-17.928-.07c-9.269-1.412-14.402-6.55-15.644-16.146-.597-4.598-.691-9.279-.773-13.935-.117-7.232-.035-14.464-.035-21.885h11.226v2.458c.035 8.82.046 17.64.117 26.459.011 1.493.234 3.01.504 4.48.937 4.951 3.023 7.397 7.944 7.926 4.067.435 8.262.235 12.351-.141 4.02-.376 6.398-3.07 7.09-6.997.492-2.81.785-5.692.82-8.537.105-7.75.035-15.488.035-23.237V.27h.024Z"/></g><defs><clipPath id="clip0_141_611"><path fill="#fff" d="M0 0h461v53H0z"/></clipPath></defs></svg>