<svg width="765" height="244" fill="none" xmlns="http://www.w3.org/2000/svg"><path d="M763.351 160.91c-15.935-1.865-31.76-3.731-47.695-5.597-.88 0-1.978-.33-2.528-.878-2.747-2.744-5.275-5.489-8.132-8.452.329-.549.879-1.207 1.428-1.976a11347.124 11347.124 0 0 1 44.069-57.186c1.099-1.536 1.099-2.524.33-4.06a11453.25 11453.25 0 0 1-18.463-36.77 530.296 530.296 0 0 0-5.714-11.087c-.66.22-.88.33-1.209.44-17.364 10.536-34.618 21.183-51.982 31.72-.769.55-1.539 1.318-1.978 2.196-3.517 6.366-6.924 12.842-10.331 19.318-2.747 5.049-5.385 10.098-8.242 15.366-5.165-3.183-10.001-6.366-14.836-9.33-1.539-.878-1.869-1.756-1.099-3.512 3.846-9.22 7.693-18.55 11.429-27.88a1850.564 1850.564 0 0 0 7.034-17.342h-2.638c-18.573.988-37.146 1.866-55.608 2.964-1.209 0-2.528.878-3.517 1.756-11.32 10.976-22.639 21.952-33.739 32.929-.769.768-1.209 2.195-1.099 3.292.879 8.891 1.978 17.782 2.968 26.672.219 1.866 1.098 2.305 2.857 2.305 10.99 0 21.979.22 32.969.33h11.979a14652.15 14652.15 0 0 1 10.33 53.454c-.219.109-.439.219-.549.329-12.309-13.72-24.507-27.44-36.926-41.27-9.781 15.256-19.452 30.404-29.233 45.551.22-.659.33-1.427.33-2.305-.769-18.221-1.429-36.331-2.088-54.552-.659-16.135-1.099-32.38-1.758-48.514-.11-3.842-.44-7.574-.66-11.526-11.099-1.646-21.979-3.402-33.189-5.049-.22 3.293-.33 6.037-.439 8.891-.99 19.757-1.979 39.624-2.968 59.381-.549 9.989-.989 20.087-1.319 30.185 0 1.975-.769 2.853-2.747 3.292-4.835.988-9.671 2.196-14.397 3.293-.769.22-1.538.22-2.637.33v-2.635c1.099-23.598 2.198-47.307 3.297-70.906 0-1.207-.22-2.634-.879-3.622-5.715-10.098-11.54-20.196-17.254-30.294-1.209-2.085-2.418-4.17-3.957-6.586a14914.83 14914.83 0 0 1-27.145 43.576c-9.561-12.952-18.902-25.465-28.353-38.197-.879.548-1.539.987-2.088 1.427l-43.52 32.599c-1.209.878-2.308 2.414-2.857 3.841-5.605 15.916-11.1 31.941-16.595 47.966-1.209 3.513-2.418 6.915-3.626 10.428-.22 0-.44 0-.66-.11.769-23.16 1.539-46.32 2.418-70.138a61825.36 61825.36 0 0 1 46.157-66.296c-.22-.22-.33-.439-.549-.658-25.387 15.915-50.663 31.83-76.38 47.965a9870.743 9870.743 0 0 1 30.662 18.88c-13.078 8.231-25.606 16.134-38.135 23.927-.109-.22-.219-.329-.439-.548 3.297-4.39 6.594-8.671 10.001-13.172-9.122-10.317-18.134-20.415-27.365-30.843-7.913 9.66-15.496 19.208-23.298 28.867-7.583-11.195-14.837-21.952-22.31-32.928-13.407 12.293-26.595 24.257-40.112 36.66V53.673c-11.21.988-22.2 1.976-33.3 2.964-2.088 33.038-4.176 65.747-6.264 98.346-.549 0-.659.22-.879.11-7.363-2.854-14.616-5.817-21.87-8.781-.659-.329-1.318-1.646-1.209-2.524.33-5.927.77-11.855 1.209-17.782 1.209-16.574 2.418-33.148 3.517-49.722 0-1.207-.659-2.854-1.539-3.622-4.835-4.17-9.78-8.232-14.726-12.293-5.055-4.171-10.11-8.342-15.386-12.733-.879 1.427-1.538 2.635-2.088 3.842-6.813 13.172-13.737 26.233-20.55 39.405-1.21 2.305-2.528 3.292-5.276 3.183-9.121-.33-18.243-.44-27.474-.55H47.586c1.099-16.134 2.198-31.72 3.297-47.416 14.616 3.402 28.793 6.586 42.97 9.988 2.198.549 3.626.33 5.165-1.537 7.033-7.902 14.287-15.695 21.54-23.489 1.868-2.085 3.737-4.17 5.934-6.475A45655.225 45655.225 0 0 1 47.146 0c-.44.659-.66.988-.77 1.317C31.212 32.928 16.046 64.54.77 96.151c-.989 2.086-.989 3.842 0 5.927 11.1 25.245 22.09 50.6 33.3 75.846.988 2.305 1.098 4.28.219 6.585-2.967 8.781-5.824 17.562-8.682 26.233-1.209 3.513-1.099 3.513 2.308 4.61 22.09 7.244 44.179 14.489 66.269 21.623 1.318.439 2.747.769 4.725 1.317-13.517-38.965-26.815-77.382-40.223-115.908.99-.219 1.43-.329 1.869-.439l16.814-2.305c1.868-.219 3.297-.768 4.286-2.744 1.429-3.293 3.187-6.366 4.946-9.439 2.307-4.281 4.615-8.672 7.033-13.172 4.726 2.415 9.122 4.94 13.627 7.025 1.978.878 2.308 2.195 2.198 4.061-.329 7.354-.659 14.598-.879 21.952-.549 17.233-.989 34.575-1.429 51.808 0 .878.77 2.195 1.539 2.634 13.627 6.257 27.255 12.403 40.882 18.66 1.649.768 2.418.439 3.187-1.208 1.978-4.5 4.176-8.89 6.264-13.391 2.638-5.488 5.275-10.976 8.023-16.903 9.451 10.208 18.463 19.977 27.694 29.965 10.66-14.049 20.991-27.879 31.541-41.819-5.715-5.159-11.1-10.098-16.595-14.818-1.758-1.537-2.527-3.183-2.527-5.598.329-15.476.439-30.953.659-46.32 0-.658.11-1.316.33-2.304 7.253 5.049 14.067 9.988 20.99 14.708 1.759 1.207 2.308 2.415 2.308 4.39 0 24.367.11 48.625.22 72.992v10.427h5.385c9.012-.219 18.133-.549 27.145-.658 2.527 0 3.736-.879 3.736-3.403 0-.768 0-1.427.11-2.195.66-8.342 1.209-16.794 1.868-25.136.989-13.061 2.088-26.013 3.187-39.075.44-5.159.77-10.317 1.209-15.805 7.693 4.39 15.056 8.561 22.419 12.842 4.177-5.379 8.133-10.538 12.199-15.806.22 0 .44.219.66.329v88.688c.879 0 1.538.219 2.088.219 10.55-.658 21.21-1.317 31.76-1.866 2.088-.11 2.638-1.097 2.748-3.073.219-11.854.659-23.818.989-35.673 0-.658.219-1.317.439-2.305.989.878 1.539 1.317 2.198 1.866 13.188 12.733 26.486 25.575 39.783 38.307.989.878 2.198 1.976 3.407 2.086 8.243 1.207 16.485 2.195 24.727 3.402 2.308.329 3.627-.439 4.946-2.305 6.923-9.878 14.067-19.647 20.99-29.526 3.077-4.28 6.154-8.561 9.451-13.281-1.428 0-2.308-.11-3.187-.219-11.319-.22-22.749-.439-34.068-.659-1.209 0-2.748 0-3.737-.549-3.297-2.305-6.374-4.829-9.781-7.354 14.287-17.342 28.354-34.355 42.641-51.697 3.627 6.475 7.143 12.403 10.33 18.439.77 1.427 1.319 3.184 1.319 4.83.11 19.318.11 38.636 0 57.844 0 1.757.44 3.074 1.868 4.171 3.297 2.525 6.374 5.159 9.561 7.793 5.825 4.72 11.54 9.44 17.584 14.379 8.902-9.22 17.694-18.22 26.705-27.55 3.187 7.464 6.155 14.379 9.232 21.623a51.403 51.403 0 0 0 3.297-1.317c8.572-3.842 16.924-7.683 25.496-11.415.989-.439 1.649-.878 2.088-1.427.55.439.879.768 1.209.988 14.177 8.671 28.354 17.452 42.531 26.233 1.538.987 2.417.439 3.626-.439 15.496-11.416 30.881-22.831 46.487-34.027 1.978-1.426 2.638-2.963 2.747-5.158.77-13.391 1.649-26.782 2.528-40.173.33-5.488.769-10.976 1.099-16.574.55.329.769.768.879 1.207 6.045 22.392 12.199 44.783 18.243 67.174.55 2.196 1.539 3.952 3.407 5.379 5.605 4.171 10.99 8.451 16.375 12.952.879.768 1.758 2.414 1.648 3.622-1.208 11.525-2.527 23.05-3.846 34.575-.549 4.39-.879 8.781-1.319 13.171l.66.329c25.276-27.44 50.553-54.881 76.159-82.76-1.099-.219-1.319-.329-1.648-.329l.109-.33Zm-371.015-28.977c-2.418-1.646-4.616-3.183-6.704-4.939-.55-.439-.989-1.317-.989-2.085-.33-11.745-.55-23.599-.769-35.344 0-.11.219-.329.439-.768 8.572 6.037 17.144 11.964 26.046 18.221-6.044 8.451-11.979 16.574-17.913 24.915h-.11Zm242.545-38.306c-12.968 2.524-26.046 4.939-39.454 7.573V71.455c13.408 7.354 26.486 14.488 39.564 21.623v.658l-.11-.11Zm53.96 31.172c.879-13.501 1.318-26.892 1.868-40.392l.659-.33c7.803 7.464 15.496 14.818 23.518 22.501a11249.362 11249.362 0 0 1-20.66 29.087c-4.616-2.414-5.715-5.927-5.385-10.756v-.11Z" fill="#F3BD20"/></svg>