<svg width="765" height="244" viewBox="0 0 765 244" fill="none" xmlns="http://www.w3.org/2000/svg">
<path d="M763.351 160.91C747.416 159.045 731.591 157.179 715.656 155.313C714.776 155.313 713.678 154.983 713.128 154.435C710.381 151.691 707.853 148.946 704.996 145.983C705.325 145.434 705.875 144.776 706.424 144.007C721.041 124.909 735.767 105.81 750.493 86.8214C751.592 85.2848 751.592 84.2969 750.823 82.7602C744.669 70.5767 738.514 58.2834 732.36 45.9901C730.492 42.2582 728.624 38.6361 726.646 34.9042C725.986 35.1237 725.766 35.2335 725.437 35.3432C708.073 45.8803 690.819 56.5272 673.455 67.0643C672.686 67.6131 671.916 68.3815 671.477 69.2596C667.96 75.6257 664.553 82.1017 661.146 88.5776C658.399 93.6266 655.761 98.6757 652.904 103.944C647.739 100.761 642.903 97.578 638.068 94.6145C636.529 93.7364 636.199 92.8583 636.969 91.1021C640.815 81.8821 644.662 72.5524 648.398 63.2227C650.706 57.6248 653.014 51.9172 655.432 45.8803C654.223 45.8803 653.563 45.8803 652.794 45.8803C634.221 46.8682 615.648 47.7463 597.186 48.8439C595.977 48.8439 594.658 49.722 593.669 50.6001C582.349 61.5762 571.03 72.5524 559.93 83.5286C559.161 84.2969 558.721 85.7238 558.831 86.8214C559.71 95.7121 560.809 104.603 561.799 113.493C562.018 115.359 562.897 115.798 564.656 115.798C575.646 115.798 586.635 116.018 597.625 116.128C601.582 116.128 605.428 116.128 609.604 116.128C613.121 134.129 616.528 151.8 619.934 169.582C619.715 169.691 619.495 169.801 619.385 169.911C607.076 156.191 594.878 142.471 582.459 128.641C572.678 143.897 563.007 159.045 553.226 174.192C553.446 173.533 553.556 172.765 553.556 171.887C552.787 153.666 552.127 135.556 551.468 117.335C550.809 101.2 550.369 84.9555 549.71 68.8205C549.6 64.9789 549.27 61.247 549.05 57.2955C537.951 55.6491 527.071 53.8929 515.861 52.2465C515.641 55.5394 515.531 58.2834 515.422 61.1372C514.432 80.8943 513.443 100.761 512.454 120.518C511.905 130.507 511.465 140.605 511.135 150.703C511.135 152.678 510.366 153.556 508.388 153.995C503.553 154.983 498.717 156.191 493.991 157.288C493.222 157.508 492.453 157.508 491.354 157.618C491.354 156.63 491.354 155.752 491.354 154.983C492.453 131.385 493.552 107.676 494.651 84.0774C494.651 82.87 494.431 81.4431 493.772 80.4552C488.057 70.3572 482.232 60.2591 476.518 50.161C475.309 48.0756 474.1 45.9901 472.561 43.5753C463.44 58.2834 454.538 72.5524 445.416 87.1507C435.855 74.1988 426.514 61.686 417.063 48.9537C416.184 49.5025 415.524 49.9415 414.975 50.3806C400.468 61.247 385.962 72.1134 371.455 82.9798C370.246 83.8578 369.147 85.3945 368.598 86.8214C362.993 102.737 357.498 118.762 352.003 134.787C350.794 138.3 349.585 141.702 348.377 145.215C348.157 145.215 347.937 145.215 347.717 145.105C348.486 121.945 349.256 98.7854 350.135 74.9672C365.631 52.6856 380.906 30.7332 396.292 8.67117C396.072 8.45164 395.962 8.23212 395.743 8.0126C370.356 23.928 345.08 39.8435 319.363 55.9784C329.914 62.4543 339.914 68.601 350.025 74.8574C336.947 83.0895 324.419 90.9924 311.89 98.7854C311.781 98.5659 311.671 98.4561 311.451 98.2366C314.748 93.8462 318.045 89.5655 321.452 85.0652C312.33 74.7476 303.318 64.6496 294.087 54.2222C286.174 63.8812 278.591 73.4305 270.789 83.0895C263.206 71.8938 255.952 61.1372 248.479 50.161C235.072 62.4543 221.884 74.4184 208.367 86.8214V53.6734C197.157 54.6613 186.167 55.6491 175.067 56.637C172.979 89.6752 170.891 122.384 168.803 154.983C168.254 154.983 168.144 155.203 167.924 155.093C160.561 152.239 153.308 149.276 146.054 146.312C145.395 145.983 144.736 144.666 144.845 143.788C145.175 137.861 145.615 131.933 146.054 126.006C147.263 109.432 148.472 92.8583 149.571 76.2843C149.571 75.0769 148.912 73.4305 148.032 72.6622C143.197 68.4912 138.252 64.43 133.306 60.3689C128.251 56.1979 123.196 52.027 117.92 47.6365C117.041 49.0634 116.382 50.2708 115.832 51.4782C109.019 64.6496 102.095 77.7112 95.2814 90.8826C94.0726 93.1876 92.7538 94.1754 90.0063 94.0657C80.8848 93.7364 71.7633 93.6266 62.5318 93.5169C57.5864 93.5169 52.7509 93.5169 47.5857 93.5169C48.6847 77.3819 49.7837 61.7958 50.8826 46.0999C65.4991 49.5025 79.6759 52.6856 93.8528 56.0882C96.0507 56.637 97.4794 56.4175 99.018 54.5515C106.051 46.6487 113.305 38.8556 120.558 31.0625C122.426 28.9771 124.295 26.8916 126.492 24.5866C99.4576 16.2447 73.3018 8.12236 47.1461 0C46.7065 0.65857 46.4867 0.987854 46.3768 1.31714C31.2109 32.9285 16.045 64.5398 0.769155 96.1511C-0.219927 98.2366 -0.219927 99.9928 0.769155 102.078C11.8689 127.323 22.8587 152.678 34.0683 177.924C35.0573 180.229 35.1672 182.204 34.288 184.509C31.3208 193.29 28.4635 202.071 25.6061 210.742C24.3972 214.255 24.5071 214.255 27.914 215.352C50.0035 222.596 72.093 229.841 94.1825 236.975C95.5012 237.414 96.9299 237.744 98.9081 238.292C85.3906 199.327 72.093 160.91 58.6854 122.384C59.6745 122.165 60.1141 122.055 60.5537 121.945C66.1585 121.177 71.7633 120.408 77.3681 119.64C79.2363 119.421 80.665 118.872 81.6541 116.896C83.0828 113.603 84.8411 110.53 86.5995 107.457C88.9074 103.176 91.2152 98.7854 93.633 94.2852C98.3586 96.7 102.755 99.2245 107.26 101.31C109.238 102.188 109.568 103.505 109.458 105.371C109.129 112.725 108.799 119.969 108.579 127.323C108.03 144.556 107.59 161.898 107.15 179.131C107.15 180.009 107.92 181.326 108.689 181.765C122.316 188.022 135.944 194.168 149.571 200.425C151.22 201.193 151.989 200.864 152.758 199.217C154.736 194.717 156.934 190.327 159.022 185.826C161.66 180.338 164.297 174.85 167.045 168.923C176.496 179.131 185.508 188.9 194.739 198.888C205.399 184.839 215.73 171.009 226.28 157.069C220.565 151.91 215.18 146.971 209.685 142.251C207.927 140.714 207.158 139.068 207.158 136.653C207.487 121.177 207.597 105.7 207.817 90.3338C207.817 89.6752 207.927 89.0166 208.147 88.0288C215.4 93.0778 222.214 98.0171 229.137 102.737C230.896 103.944 231.445 105.152 231.445 107.127C231.445 131.494 231.555 155.752 231.665 180.119C231.665 183.521 231.665 186.924 231.665 190.546C233.973 190.546 235.511 190.546 237.05 190.546C246.062 190.327 255.183 189.997 264.195 189.888C266.722 189.888 267.931 189.009 267.931 186.485C267.931 185.717 267.931 185.058 268.041 184.29C268.701 175.948 269.25 167.496 269.909 159.154C270.898 146.093 271.997 133.141 273.096 120.079C273.536 114.92 273.866 109.762 274.305 104.274C281.998 108.664 289.361 112.835 296.724 117.116C300.901 111.737 304.857 106.578 308.923 101.31C309.143 101.31 309.363 101.529 309.583 101.639V190.327C310.462 190.327 311.121 190.546 311.671 190.546C322.221 189.888 332.881 189.229 343.431 188.68C345.519 188.57 346.069 187.583 346.179 185.607C346.398 173.753 346.838 161.789 347.168 149.934C347.168 149.276 347.387 148.617 347.607 147.629C348.596 148.507 349.146 148.946 349.805 149.495C362.993 162.228 376.291 175.07 389.588 187.802C390.577 188.68 391.786 189.778 392.995 189.888C401.238 191.095 409.48 192.083 417.722 193.29C420.03 193.619 421.349 192.851 422.668 190.985C429.591 181.107 436.735 171.338 443.658 161.459C446.735 157.179 449.812 152.898 453.109 148.178C451.681 148.178 450.801 148.068 449.922 147.959C438.603 147.739 427.173 147.52 415.854 147.3C414.645 147.3 413.106 147.3 412.117 146.751C408.82 144.446 405.743 141.922 402.336 139.397C416.623 122.055 430.69 105.042 444.977 87.6995C448.604 94.1754 452.12 100.103 455.307 106.139C456.077 107.566 456.626 109.323 456.626 110.969C456.736 130.287 456.736 149.605 456.626 168.813C456.626 170.57 457.066 171.887 458.494 172.984C461.791 175.509 464.868 178.143 468.055 180.777C473.88 185.497 479.595 190.217 485.639 195.156C494.541 185.936 503.333 176.936 512.344 167.606C515.531 175.07 518.499 181.985 521.576 189.229C522.785 188.79 523.884 188.351 524.873 187.912C533.445 184.07 541.797 180.229 550.369 176.497C551.358 176.058 552.018 175.619 552.457 175.07C553.007 175.509 553.336 175.838 553.666 176.058C567.843 184.729 582.02 193.51 596.197 202.291C597.735 203.278 598.614 202.73 599.823 201.852C615.319 190.436 630.704 179.021 646.31 167.825C648.288 166.399 648.948 164.862 649.057 162.667C649.827 149.276 650.706 135.885 651.585 122.494C651.915 117.006 652.354 111.518 652.684 105.92C653.234 106.249 653.453 106.688 653.563 107.127C659.608 129.519 665.762 151.91 671.806 174.301C672.356 176.497 673.345 178.253 675.213 179.68C680.818 183.851 686.203 188.131 691.588 192.632C692.467 193.4 693.346 195.046 693.236 196.254C692.028 207.779 690.709 219.304 689.39 230.829C688.841 235.219 688.511 239.61 688.071 244C688.291 244.11 688.511 244.22 688.731 244.329C714.007 216.889 739.284 189.448 764.89 161.569C763.791 161.35 763.571 161.24 763.242 161.24L763.351 160.91ZM392.336 131.933C389.918 130.287 387.72 128.75 385.632 126.994C385.082 126.555 384.643 125.677 384.643 124.909C384.313 113.164 384.093 101.31 383.874 89.5655C383.874 89.4557 384.093 89.2362 384.313 88.7971C392.885 94.834 401.457 100.761 410.359 107.018C404.315 115.469 398.38 123.592 392.446 131.933H392.336ZM634.881 93.6266C621.913 96.1512 608.835 98.5659 595.427 101.2V71.4548C608.835 78.8088 621.913 85.9433 634.991 93.0778C634.991 93.2973 634.991 93.5169 634.991 93.7364L634.881 93.6266ZM688.841 124.799C689.72 111.298 690.159 97.9073 690.709 84.4067C690.929 84.2969 691.148 84.1871 691.368 84.0774C699.171 91.5412 706.864 98.8952 714.886 106.578C707.963 116.347 701.039 126.116 694.226 135.665C689.61 133.251 688.511 129.738 688.841 124.909V124.799Z" fill="#F3BD20"/>
</svg>
